<?xml version="1.0" encoding="UTF-8" standalone="no"?>
<!-- Created with Inkscape (http://www.inkscape.org/) -->

<svg
   xmlns:dc="http://purl.org/dc/elements/1.1/"
   xmlns:cc="http://creativecommons.org/ns#"
   xmlns:rdf="http://www.w3.org/1999/02/22-rdf-syntax-ns#"
   xmlns:svg="http://www.w3.org/2000/svg"
   xmlns="http://www.w3.org/2000/svg"
   xmlns:sodipodi="http://sodipodi.sourceforge.net/DTD/sodipodi-0.dtd"
   xmlns:inkscape="http://www.inkscape.org/namespaces/inkscape"
   width="132.92667mm"
   height="158.32666mm"
   viewBox="0 0 471 560.99998"
   id="svg2"
   version="1.1"
   inkscape:version="0.91 r13725"
   sodipodi:docname="south_park_sign.svg">
  <defs
     id="defs4" />
  <sodipodi:namedview
     id="base"
     pagecolor="#ffffff"
     bordercolor="#666666"
     borderopacity="1.0"
     inkscape:pageopacity="0.0"
     inkscape:pageshadow="2"
     inkscape:zoom="0.7"
     inkscape:cx="271.79617"
     inkscape:cy="201.98023"
     inkscape:document-units="px"
     inkscape:current-layer="layer1"
     showgrid="false"
     inkscape:window-width="1366"
     inkscape:window-height="706"
     inkscape:window-x="0"
     inkscape:window-y="38"
     inkscape:window-maximized="1"
     fit-margin-top="0"
     fit-margin-left="0"
     fit-margin-right="0"
     fit-margin-bottom="0" />
  <metadata
     id="metadata7">
    <rdf:RDF>
      <cc:Work
         rdf:about="">
        <dc:format>image/svg+xml</dc:format>
        <dc:type
           rdf:resource="http://purl.org/dc/dcmitype/StillImage" />
        <dc:title></dc:title>
      </cc:Work>
    </rdf:RDF>
  </metadata>
  <g
     inkscape:label="Layer 1"
     inkscape:groupmode="layer"
     id="layer1"
     transform="translate(662.64288,-156.1479)">
    <g
       id="g4392"
       transform="matrix(2,0,0,2,-52.857113,-443.79079)">
      <path
         inkscape:connector-curvature="0"
         id="path4352"
         d="m -186.68902,575.24058 c -0.009,-0.0412 -2.34416,-18.80176 -5.19003,-41.69003 -2.84587,-22.88826 -5.27354,-41.71425 -5.39482,-41.83553 -0.21643,-0.21643 -5.27581,-0.67508 -65.74944,-5.96038 -16.5,-1.44207 -30.08534,-2.70455 -30.18964,-2.80551 -0.13758,-0.13316 -7.27834,-131.05038 -7.83845,-143.70863 l -0.0719,-1.62508 95.25,-14.47933 c 52.3875,-7.96364 100.57699,-15.29286 107.08775,-16.28717 6.51077,-0.99431 11.87835,-1.76724 11.92797,-1.71762 0.0496,0.0496 1.50779,20.32764 3.24036,45.06225 1.73258,24.73462 3.61828,51.65453 4.19045,59.82203 0.57216,8.1675 1.99364,28.485 3.15883,45.15 1.16519,16.665 2.36017,33.675 2.65551,37.8 0.29533,4.125 0.50432,7.54439 0.46441,7.59864 -0.0399,0.0543 -25.02567,-1.6541 -55.52392,-3.79633 -30.49825,-2.14224 -55.48394,-3.86405 -55.52375,-3.82625 -0.0398,0.0378 1.81976,18.40407 4.13239,40.81394 2.31263,22.40987 4.13891,40.81109 4.05841,40.89159 -0.28615,0.28615 -10.62816,0.86056 -10.68412,0.59341 z"
         style="fill:#9c6c56;fill-opacity:1;stroke:#000000;stroke-opacity:1" />
      <path
         inkscape:connector-curvature="0"
         id="path4354"
         d="M -299.96986,370.54513 -84.04975,349.837"
         style="fill:none;fill-rule:evenodd;stroke:#000000;stroke-width:0.5;stroke-linecap:butt;stroke-linejoin:miter;stroke-miterlimit:4;stroke-dasharray:none;stroke-opacity:1" />
      <path
         sodipodi:nodetypes="cc"
         inkscape:connector-curvature="0"
         id="path4356"
         d="m -298.57143,403.07649 217.6696,-10.02167"
         style="fill:none;fill-rule:evenodd;stroke:#000000;stroke-width:0.5;stroke-linecap:butt;stroke-linejoin:miter;stroke-miterlimit:4;stroke-dasharray:none;stroke-opacity:1" />
      <path
         sodipodi:nodetypes="cc"
         inkscape:connector-curvature="0"
         id="path4358"
         d="m -78.00322,434.50506 -218.7825,2.85715"
         style="fill:none;fill-rule:evenodd;stroke:#000000;stroke-width:0.5;stroke-linecap:butt;stroke-linejoin:miter;stroke-miterlimit:4;stroke-dasharray:none;stroke-opacity:1" />
      <path
         sodipodi:nodetypes="cc"
         inkscape:connector-curvature="0"
         id="path4360"
         d="m -293.90505,471.64792 219.55806,12.6894"
         style="fill:none;fill-rule:evenodd;stroke:#000000;stroke-width:0.5;stroke-linecap:butt;stroke-linejoin:miter;stroke-miterlimit:4;stroke-dasharray:none;stroke-opacity:1" />
      <g
         style="fill:#000000"
         transform="matrix(0.61057906,0,0,0.61057906,-103.03313,44.291844)"
         id="g4362">
        <path
           style="fill:#000000"
           d="m -21.058726,699.39329 c -2.33318,-0.7143 -5.17464,-0.88006 -7.50782,-0.43799 -2.06465,0.39118 -5.72952,0.72965 -8.14415,0.75212 l -4.39024,0.0408 -0.70082,-5.39625 c -0.38544,-2.96793 -0.73256,-7.29666 -0.77138,-9.61939 l -0.0706,-4.22315 4.01396,-0.46924 4.01396,-0.46924 -13.25793,-15.78211 c -7.29185,-8.68015 -13.34755,-15.64835 -13.4571,-15.48488 -0.10955,0.16348 0.2494,7.05427 0.79767,15.31287 l 0.99684,15.01564 4.45777,0.28604 c 2.45177,0.15733 4.48439,0.57964 4.51694,0.93848 0.0326,0.35884 0.26732,4.82723 0.52174,9.92976 l 0.46256,9.27731 -5.67394,-0.64194 c -3.12067,-0.35306 -6.83955,-1.04057 -8.26418,-1.52781 -1.51431,-0.51791 -5.96928,-0.58324 -10.72516,-0.15728 l -8.13494,0.72859 -0.54598,-2.72991 c -0.30029,-1.50142 -0.54599,-5.82018 -0.54599,-9.5972 l 0,-6.86731 3.98853,-0.28858 3.98853,-0.28858 -0.19069,-4.69239 c -0.10488,-2.58081 -0.45166,-7.90143 -0.77063,-11.8236 -0.56822,-6.98727 -0.64489,-7.16221 -3.79783,-8.66574 -3.95169,-1.88443 -4.03408,-2.72227 -0.40247,-4.09305 l 2.81543,-1.0627 -0.10185,-8.2932 c -0.056,-4.56126 -0.37277,-10.82709 -0.70386,-13.92406 l -0.60201,-5.63087 -4.22315,-0.46924 -4.22314,-0.46924 -0.46924,-9.24257 c -0.25808,-5.08341 -0.19763,-9.40917 0.13434,-9.6128 0.33197,-0.20363 3.96463,0.0821 8.07258,0.63492 5.32485,0.71662 9.04015,0.71473 12.94207,-0.007 3.01021,-0.55646 6.82096,-1.01175 8.46835,-1.01175 l 2.99526,0 0.90927,9.15016 c 0.5001,5.03258 0.739,9.46689 0.53091,9.85401 -0.2081,0.38712 -2.31756,0.70386 -4.68767,0.70386 l -4.30931,0 0.59487,9.05604 c 0.32718,4.98082 0.80247,9.26362 1.05619,9.51735 0.5148,0.5148 6.18311,-3.92441 15.88041,-12.43699 l 6.45589,-5.66718 -3.64046,-0.46924 -3.64045,-0.46924 -0.71544,-9.32223 c -0.81595,-10.63198 -0.51998,-11.18591 5.40782,-10.12143 4.78165,0.85866 14.20605,0.76792 22.14619,-0.21323 l 6.19207,-0.76515 0.60157,3.64168 c 0.33086,2.00293 0.60621,6.43951 0.61188,9.85909 l 0.0103,6.21741 -2.94988,0.58998 c -2.9754,0.59508 -7.64982,4.40364 -22.32131,18.18668 l -7.90936,7.4304 14.00946,16.18595 c 7.7052,8.90227 14.86995,17.20603 15.92167,18.45279 1.14926,1.36238 2.92073,2.26682 4.43989,2.26682 3.0125304,0 3.3137404,0.97211 3.7076504,11.96559 l 0.27742,7.74244 -5.1685904,-0.0721 c -2.8427,-0.0397 -6.85783,-0.58933 -8.92248,-1.22141 z"
           id="path4304"
           inkscape:connector-curvature="0" />
        <path
           style="fill:#000000"
           d="m -165.11553,600.94986 0.0547,5.52539 c 0.0781,7.97585 1.14115,13.01115 2.7793,13.16016 0.76413,0.0695 2.30455,0.17487 3.42187,0.23437 1.84716,0.0984 2.08173,0.76765 2.5918,7.38086 0.30853,4.00026 0.75715,9.66406 0.99609,12.58594 0.42525,5.20026 0.37392,5.33232 -2.35937,6.28515 -3.51144,1.2241 -3.54298,2.40931 -0.10352,3.83399 2.42627,1.005 2.74672,1.67086 3.28516,6.82226 0.3281,3.13908 0.5957,8.60126 0.5957,12.13868 l 0,6.43164 -3.2832,0 -3.28516,0 0,5.98242 c 0,3.29054 0.26325,7.3026 0.58594,8.91601 l 0.58789,2.9336 9.03125,-0.19336 c 4.96798,-0.1068 11.46176,0.16293 14.42969,0.59961 l 5.39648,0.79297 0,-6.11329 c 0,-10.21584 -0.56088,-11.67958 -4.72656,-12.3457 -4.29532,-0.68684 -4.32019,-0.75255 -5.14648,-13.94531 -0.71267,-11.37859 -1.43619,-10.40714 7.51757,-10.0918 5.63694,0.19852 10.29676,1.99745 11.63086,4.49024 0.53928,1.00766 1.43447,7.48505 1.98828,14.39257 0.55383,6.90752 1.4115,14.07604 1.90625,15.92969 1.57345,5.89499 5.79656,8.35246 15.86329,9.23438 3.904254,0.34202 7.308324,0.53821 7.566404,0.43554 0.25808,-0.10268 0.25808,-4.34627 0,-9.42968 l -0.46875,-9.24219 -3.87304,-0.2832 c -3.668394,-0.26797 -3.903814,-0.46684 -4.447274,-3.75391 -0.31562,-1.90902 -0.57798,-5.61256 -0.58399,-8.23047 -0.0137,-6.3017 -2.27494,-12.66064 -5.65039,-15.89453 l -2.73828,-2.62305 2.99024,-3.77734 c 2.31521,-2.9232 2.99592,-4.7025 3.01562,-7.88672 0.0241,-3.88199 0.23475,-4.20583 3.74805,-5.75586 3.826404,-1.68816 3.727614,-2.24817 -0.57813,-3.27539 -2.87694,-0.68636 -4.55273,-4.45418 -4.55273,-10.24023 0,-4.96298 -4.88055,-9.91091 -12.66797,-12.8418 -5.16067,-1.94226 -6.57124,-2.06493 -16.89258,-1.46484 -15.69366,0.9124 -17.13554,0.91433 -23.22851,0.0488 l -5.39649,-0.76562 z m 23.46289,19.02734 4.9336,0 c 6.28534,0 10.73479,1.28405 13.51562,3.89649 1.82031,1.7101 2.19727,3.00854 2.19727,7.59179 0,5.38406 -1.09341,8.91749 -3.19141,10.31836 -0.56794,0.37922 -4.46437,0.69513 -8.6582,0.70313 l -7.625,0.0137 -0.58594,-2.93164 c -0.32261,-1.61301 -0.58594,-6.68078 -0.58594,-11.26172 l 0,-8.33008 z"
           id="path4296"
           inkscape:connector-curvature="0" />
        <path
           style="fill:#000000"
           d="m -190.73467,601.91666 -6.19336,0.79882 c -3.40691,0.44017 -10.73445,0.67049 -16.2832,0.51172 l -10.08984,-0.28711 0,2.75 c 0,1.51286 0.27189,5.34684 0.60351,8.51953 0.57986,5.54791 0.70261,5.76758 3.22852,5.76758 1.44449,0 2.8254,0.32174 3.06836,0.71485 0.24296,0.39312 -0.48498,5.71842 -1.61914,11.83398 -1.88862,10.18367 -2.27828,11.23267 -4.61133,12.45508 -3.04348,1.59464 -3.18099,2.49172 -0.64649,4.20898 l 1.90039,1.28907 -2.13476,10.79101 -2.13477,10.79297 -3.05078,-0.23828 -3.04883,-0.23828 0.01,4.93164 c 0.006,2.71182 0.26365,6.46584 0.57422,8.34375 l 0.5664,3.41406 9.04297,0.54883 c 4.97442,0.30147 10.67075,0.82134 12.65821,1.15625 l 3.61328,0.60937 -0.5293,-8.79492 c -0.29133,-4.83703 -0.5439,-8.90025 -0.5625,-9.0293 -0.0186,-0.12903 -1.29342,-0.23437 -2.83203,-0.23437 -2.78212,0 -2.79397,-0.0237 -2.29492,-4.45703 0.276,-2.45178 0.70921,-5.83028 0.96289,-7.50781 l 0.46094,-3.05079 6.02148,0 6.02148,0 0.97071,3.51954 c 0.53436,1.93561 1.58664,5.52479 2.33789,7.97656 l 1.36523,4.45898 -2.76953,0 -2.77148,0 0.0156,7.27344 c 0.0188,9.50137 0.40759,10.04509 6.69531,9.32422 3.07217,-0.35221 7.02258,-0.0754 10.18165,0.71484 2.8389,0.71017 6.42807,1.22228 7.97656,1.13868 2.5769,-0.13911 2.84188,-0.46843 3.125,-3.9043 0.17012,-2.06465 0.0355,-5.97179 -0.30078,-8.68164 l -0.61133,-4.92774 -3.54492,0 -3.54297,0 -3.77539,-11.49609 -3.77539,-11.49609 2.42773,-2.07422 2.42969,-2.07422 -3.45899,-1.44531 c -3.25801,-1.36128 -3.59834,-1.91941 -5.89453,-9.65625 -1.34041,-4.51643 -3.01706,-10.00749 -3.72656,-12.20118 l -1.29102,-3.98828 3.22852,0 3.22656,0 0,-5.98242 c 0,-3.29053 -0.27409,-7.35488 -0.60937,-9.03125 l -0.60938,-3.04687 z m -14.3789,34.68164 2.11914,5.53125 c 1.1658,3.04292 2.14127,6.06183 2.16797,6.70703 0.0524,1.26873 -6.11645,1.69377 -6.80274,0.46875 -0.21688,-0.38712 0.25998,-3.40408 1.06055,-6.70508 l 1.45508,-6.00195 z"
           id="path4290"
           inkscape:connector-curvature="0" />
        <path
           style="fill:#000000"
           d="m -261.75029,604.23111 c -1.61692,-0.0162 -3.40064,0.047 -5.38672,0.17969 -5.05269,0.33766 -12.25,0.56907 -15.99218,0.51367 l -6.80274,-0.10156 0,5.11328 c 0,8.74611 0.77247,10.98047 3.79688,10.98047 3.07292,0 3.2973,0.72954 4.21484,13.65234 l 0.60352,8.49219 -2.60547,1.1875 -2.60742,1.1875 2.75585,2.19531 c 2.70438,2.15465 2.76254,2.38807 3.07032,12.45898 l 0.31445,10.26368 -2.94531,-0.4336 -2.94336,-0.43164 0.59375,7.38672 c 0.32657,4.06089 0.73654,7.85584 0.91015,8.43359 0.2217,0.72712 1.83408,0.8047 5.31836,0.25391 2.99732,-0.47381 6.31943,-0.42612 8.28907,0.12109 1.80809,0.50234 4.81495,0.91693 6.68164,0.91993 l 3.39453,0.006 -0.41602,-6.80469 c -0.53084,-8.69797 -0.6987,-9.15039 -3.41211,-9.15039 -3.41069,0 -4.03345,-1.57387 -4.26172,-10.79102 -0.11505,-4.64547 -0.4248,-9.18655 -0.68945,-10.08984 -0.39396,-1.34462 0.11849,-1.64258 2.82813,-1.64258 1.82027,0 6.58127,-0.48533 10.58007,-1.08008 6.13914,-0.91309 7.75132,-1.54916 10.36133,-4.08398 2.70082,-2.623 3.0918,-3.60665 3.0918,-7.79688 0,-3.6171 0.46936,-5.23399 1.9121,-6.57812 l 1.91211,-1.78321 -2.26367,-1.48437 c -1.88306,-1.23383 -2.3358,-2.44278 -2.67773,-7.16992 -0.33704,-4.65956 -0.89547,-6.19191 -3.0918,-8.48438 -3.65174,-3.81161 -7.52653,-5.36915 -14.5332,-5.43945 z m -9.41211,16.68555 4.16211,0 c 4.5601,0 9.0078,1.36577 10.11524,3.10742 0.38972,0.61291 0.71465,3.4773 0.72265,6.36523 0.0106,3.86897 -0.42678,5.65195 -1.66601,6.77344 -0.92501,0.83712 -4.02753,1.79781 -6.89453,2.13477 l -5.21289,0.61328 -0.60547,-5.03907 c -0.33281,-2.77162 -0.60828,-7.04627 -0.61328,-9.49804 l -0.008,-4.45703 z"
           id="path4286"
           inkscape:connector-curvature="0" />
        <path
           style="fill:#000000"
           d="m -286.61038,587.19162 c -0.78409,-1.2687 -1.2712,-6.38928 -1.90792,-20.05644 l -0.55993,-12.01874 4.49986,0.28777 4.49985,0.28775 0.29141,5.15049 c 0.35808,6.32859 2.05643,8.45744 6.74717,8.45744 4.23868,0 6.56934,-2.29018 6.56934,-6.45523 0,-6.17448 -7.59964,-16.06823 -12.34243,-16.06823 -2.4948,0 -2.64481,-0.17646 -1.68098,-1.97738 0.90069,-1.68296 0.64266,-2.41657 -1.7329,-4.92701 -7.25097,-7.66264 -10.07071,-16.04518 -9.38454,-27.89837 0.4938,-8.5302 1.57868,-10.27231 7.90039,-12.68659 2.86429,-1.09389 5.53655,-1.403 8.79376,-1.01723 3.17542,0.37608 5.77656,0.0956 8.09412,-0.87272 1.93766,-0.80961 3.76839,-1.07351 4.23186,-0.61004 0.44926,0.44926 1.24869,8.36522 1.77651,17.59102 1.06316,18.5832 1.14269,18.2815 -4.82583,18.30679 l -3.39319,0.0144 -0.47176,-6.59352 c -0.62556,-8.74306 -3.3057,-11.76842 -8.61922,-9.72943 -2.13384,0.81883 -1.9194,9.17389 0.3646,14.20554 2.66056,5.86123 5.86095,8.68676 9.83924,8.68676 3.25375,0 4.3456,1.13685 2.3038,2.39875 -0.63904,0.39495 0.21853,1.91406 2.28289,4.04392 5.8285,6.01345 8.444,12.54976 8.88345,22.20027 0.51121,11.22647 -0.89853,14.80293 -6.87742,17.44767 -3.72874,1.6494 -5.41177,1.81816 -12.55764,1.25915 -5.48548,-0.42912 -8.91005,-0.29325 -10.21532,0.40531 -1.19244,0.63818 -2.17778,0.70413 -2.50917,0.16794 z"
           id="path4276"
           inkscape:connector-curvature="0" />
        <path
           style="fill:#000000"
           d="m -228.30303,491.52994 c -4.54208,-0.064 -9.9686,0.72882 -12.82812,2.18164 -8.65476,4.39718 -9.95495,8.71576 -8.62304,28.66406 0.93292,13.97248 0.63824,16.09681 -2.5586,18.46484 -1.30075,0.96351 -1.17062,1.22518 1.02735,2.06446 2.82292,1.07791 3.15108,2.52392 3.95312,17.47851 0.85674,15.97476 3.68061,22.80508 10.26757,24.83399 4.86382,1.49816 16.77823,0.63873 20.4375,-1.47461 6.07881,-3.51069 6.68128,-6.05701 6.1211,-25.85742 -0.48743,-17.22916 -0.46211,-17.54054 1.5664,-19.04102 1.22404,-0.90542 1.63882,-1.71494 1.02149,-1.99219 -3.64093,-1.63519 -3.96272,-2.69821 -4.52344,-14.94531 -0.98787,-21.57672 -2.27424,-25.59608 -9.38672,-29.29492 -1.34159,-0.69769 -3.74936,-1.04362 -6.47461,-1.08203 z m -1.41992,18.68945 c 1.41644,0.0454 2.69631,0.29959 3.46875,0.78906 0.86961,0.55105 1.54039,4.4423 2.12891,12.3418 0.83902,11.26185 0.80914,11.58887 -1.25781,13.78906 l -2.11719,2.25391 2.07226,1.58008 c 1.71992,1.31126 2.2423,3.08777 3.07032,10.45703 1.11987,9.96666 0.64904,13.70017 -1.89649,15.0625 -0.95644,0.51187 -3.2339,0.92969 -5.0625,0.92969 -4.96466,0 -6.47637,-2.9538 -7.16211,-13.99805 -0.53561,-8.62633 -0.46314,-9.09805 1.75391,-11.53321 l 2.31054,-2.53906 -2.38476,-1.08789 c -2.9553,-1.34652 -3.51758,-3.89163 -3.51758,-15.95312 0,-8.45787 0.17139,-9.33282 2.08594,-10.67383 1.40661,-0.98523 4.14708,-1.49369 6.50781,-1.41797 z"
           id="path4274"
           inkscape:connector-curvature="0" />
        <path
           style="fill:#000000"
           d="m -180.39579,583.34855 c -10.49486,-2.64106 -12.54737,-6.74934 -13.96718,-27.95656 -0.96819,-14.46144 -1.60571,-17.06186 -4.18292,-17.06186 -1.86511,0 -1.59127,-1.31839 0.70076,-3.37384 1.87738,-1.68359 1.95994,-2.38946 1.41649,-12.11104 -0.31739,-5.67779 -0.58102,-11.51645 -0.58585,-12.9748 -0.008,-2.42703 -0.26703,-2.62569 -3.05883,-2.34619 -3.04642,0.30498 -3.05078,0.2992 -3.66109,-4.85628 -0.33608,-2.83889 -0.65282,-7.11837 -0.70386,-9.50994 -0.11215,-5.25391 1.24273,-5.91386 8.8607,-4.31597 4.44474,0.93229 5.25555,0.85876 6.89548,-0.62536 1.02216,-0.92504 3.25395,-1.74718 4.95953,-1.82699 l 3.10106,-0.1451 0.73342,7.03858 c 1.06703,10.24015 0.77283,11.62761 -2.58879,12.20893 -2.78982,0.48244 -2.81353,0.53798 -2.60738,6.10456 0.11443,3.08973 0.46471,9.04928 0.77839,13.24345 0.51514,6.88786 0.79015,7.72591 2.842,8.6608 2.83288,1.29074 2.86226,2.34517 0.12612,4.52645 -2.07147,1.6514 -2.1239,2.0536 -1.51876,11.64848 0.34473,5.46592 0.91607,10.84946 1.26962,11.96341 0.77729,2.44902 3.98379,3.37985 9.2224,2.6772 6.07909,-0.81538 6.59307,-2.13162 5.93303,-15.19386 -0.31298,-6.19395 -0.92957,-11.38254 -1.37019,-11.53019 -0.44062,-0.14766 -1.60007,-0.87182 -2.57655,-1.60926 -1.71018,-1.29151 -1.67912,-1.41959 0.8453,-3.48544 l 2.62073,-2.14466 -1.10812,-13.16971 -1.10812,-13.16972 -3.01808,0.35235 c -2.85512,0.33332 -3.05025,0.15763 -3.61385,-3.25365 -0.32768,-1.98329 -0.60042,-6.4879 -0.6061,-10.01023 l -0.0103,-6.40425 6.80396,0.18399 c 3.99353,0.10799 8.92822,-0.43318 11.9467,-1.31016 3.33727,-0.96959 5.46367,-1.17321 6.05689,-0.57999 0.50278,0.50278 1.09242,4.99009 1.31031,9.97179 0.32432,7.41557 0.16202,8.96849 -0.89527,8.5659 -0.71028,-0.27045 -2.28217,-0.12352 -3.49309,0.32652 -2.17684,0.80902 -2.19487,0.93202 -1.59871,10.90379 0.91404,15.28879 1.2985,17.09343 3.89344,18.27576 2.84294,1.29534 2.8313,2.17643 -0.0629,4.75887 -2.29455,2.04739 -2.30793,2.15363 -1.4412,11.45134 1.8631,19.98624 1.0532,27.70774 -3.37016,32.13111 -3.63093,3.63094 -16.05805,5.76126 -23.16901,3.97177 z"
           id="path4264"
           inkscape:connector-curvature="0" />
        <path
           style="fill:#000000"
           d="m -123.1995,580.79624 c -0.2347,-0.38712 -0.57637,-4.92701 -0.75925,-10.08863 l -0.33251,-9.38478 3.15101,-0.30161 3.151,-0.30161 -0.6761,-12.36784 c -0.37185,-6.80231 -0.88062,-12.71062 -1.13059,-13.12958 -0.24997,-0.41896 -1.46926,-1.14756 -2.70953,-1.61911 -2.91402,-1.10791 -2.86492,-2.54312 0.13375,-3.90941 l 2.38877,-1.08839 -0.56752,-12.73404 c -0.73554,-16.50413 -0.89328,-17.23657 -3.53743,-16.42639 -4.06294,1.2449 -4.42651,2.16681 -4.42651,11.22453 l 0,8.71004 -4.927,0.38222 c -2.70986,0.21022 -5.04967,0.30428 -5.19958,0.20903 -0.14992,-0.0952 -0.48928,-3.49942 -0.75414,-7.56483 -1.91458,-29.38787 -1.95927,-30.87243 -0.9496,-31.54738 0.57081,-0.38157 4.20519,-0.62801 8.07641,-0.54762 4.46289,0.0927 9.09913,-0.47222 12.66945,-1.54366 4.56782,-1.37079 6.6637,-1.52163 11.10173,-0.79903 3.97273,0.64685 6.06806,0.58095 7.65172,-0.24066 4.036404,-2.09411 9.094944,-3.42593 9.911394,-2.60948 1.16545,1.16545 3.26323,38.70374 2.21949,39.71621 -0.46918,0.45511 -2.96462,0.95244 -5.54544,1.10516 l -4.69238,0.27766 -0.74194,-7.94762 c -0.775714,-8.30943 -2.415164,-11.23231 -6.300214,-11.23231 -2.35995,0 -2.53574,1.15385 -1.78718,11.73097 0.36529,5.16163 0.70649,11.33954 0.75822,13.72869 0.0846,3.90394 0.37921,4.46203 2.90948,5.51011 3.43006,1.42078 3.60364,3.09349 0.46924,4.52163 -2.65937,1.21168 -2.84365,3.19754 -1.73978,18.74887 l 0.60642,8.54322 3.85135,0.28187 3.851354,0.28188 0.19124,4.22315 c 0.1052,2.32273 0.38384,6.46671 0.61922,9.20884 0.39115,4.5567 0.23354,5.07428 -1.83166,6.01526 -1.65199,0.75268 -3.585124,0.73797 -7.188564,-0.0547 -3.99841,-0.87959 -5.90337,-0.82138 -10.09055,0.30833 -5.87095,1.58401 -7.22019,1.70663 -7.82378,0.71105 z"
           id="path4262"
           inkscape:connector-curvature="0" />
        <path
           style="fill:#000000"
           d="m -73.570896,578.43373 c -0.6803,-2.21528 -1.36028,-17.6612 -0.83748,-19.02358 0.31875,-0.83065 1.78287,-1.37199 3.71075,-1.37199 l 3.18426,0 -0.0928,-8.68092 c -0.0511,-4.7745 -0.36778,-10.92738 -0.70386,-13.67305 -0.52282,-4.27134 -1.01755,-5.21985 -3.42648,-6.56934 -1.54848,-0.86747 -3.01371,-1.70511 -3.25604,-1.86142 -0.24235,-0.15631 0.96546,-1.38464 2.68403,-2.72962 l 3.12465,-2.44541 -0.60556,-10.87831 c -0.33306,-5.98307 -0.83149,-12.41782 -1.10761,-14.29945 -0.49309,-3.36013 -0.56612,-3.41256 -4.09416,-2.93935 l -3.59212,0.48181 -0.66473,-8.86632 c -0.98228,-13.10165 -1.3895,-12.46544 8.00151,-12.50083 5.08329,-0.0192 9.57789,-0.61221 12.4469,-1.64234 8.68907,-3.11983 8.87882,-2.8947 9.31969,11.0571 l 0.2669,8.4463 -3.65658,0.29946 -3.65657,0.29945 0.60167,9.08532 c 0.33092,4.99693 0.61032,11.1969 0.6209,13.77771 0.0299,7.31182 0.16568,7.38848 10.72795,6.059 l 9.1153,-1.14735 -0.65783,-13.71755 c -0.36181,-7.54466 -1.054,-14.21466 -1.53821,-14.82223 -0.52189,-0.65486 -2.14558,-0.89934 -3.98761,-0.60042 -1.70898,0.27733 -3.33583,0.13437 -3.61522,-0.31768 -0.27937,-0.45205 -0.62647,-5.24963 -0.77131,-10.6613 l -0.26333,-9.83939 7.96937,-0.14977 c 5.15456,-0.0969 10.38305,-0.88289 14.80302,-2.22541 3.84676,-1.16842 7.17377,-1.71825 7.61181,-1.25796 0.428,0.44974 1.0773,5.33723 1.44288,10.8611 0.73628,11.12468 1.17329,10.25253 -5.65343,11.28243 -2.11257,0.31872 -2.54999,2.97703 -1.69439,10.29749 0.41288,3.53256 0.91161,4.48523 2.51248,4.7992 1.82041,0.35704 1.79871,0.40306 -0.24495,0.51954 -2.14406,0.12221 -2.21637,0.34368 -1.6505,5.05482 0.3255,2.70985 0.59548,6.01015 0.59996,7.334 0.007,1.82305 0.80503,2.787 3.29283,3.97335 1.80657,0.86149 3.28467,1.95377 3.28467,2.42731 0,0.47353 -1.52109,1.75843 -3.38021,2.85533 -2.67904,1.58068 -3.27629,2.42725 -2.87925,4.08123 0.27552,1.14777 0.79684,7.45052 1.15847,14.0061 l 0.65751,11.91926 4.33331,0.28095 4.3333204,0.28096 0.52611,7.50782 c 0.28937,4.12931 0.33219,8.92657 0.0952,10.66058 l -0.43095,3.15276 -5.2567804,-0.56945 c -2.89124,-0.31319 -7.0055,-0.82169 -9.14282,-1.12998 -2.79113,-0.40261 -4.55574,-0.12172 -6.26298,0.99691 -1.46136,0.95752 -3.76021,1.4436 -5.96799,1.26189 l -3.59103,-0.29554 -0.70006,-9.80097 c -0.73049,-10.22703 -0.27644,-11.79528 3.17698,-10.97277 3.76855,0.89756 4.06078,-0.48409 2.95412,-13.96697 -0.57825,-7.04477 -1.26891,-13.02625 -1.53483,-13.29217 -0.26592,-0.26592 -4.55549,-0.1782 -9.53239,0.19494 l -9.0489,0.67843 0.65686,12.78726 c 0.36127,7.033 0.83971,13.104 1.0632,13.49112 0.22349,0.38712 2.01186,0.70386 3.97415,0.70386 l 3.5678,0 0.59181,4.92701 c 0.32549,2.70985 0.59547,7.32686 0.59996,10.26001 0.01,6.46051 -0.92109,6.99277 -9.50749,5.43575 -4.08891,-0.74146 -6.99768,-0.77313 -9.6634,-0.10525 -7.20919,1.80625 -9.96956,2.02422 -10.34043,0.81653 z"
           id="path4258"
           inkscape:connector-curvature="0" />
      </g>
    </g>
  </g>
</svg>
